<svg xmlns="http://www.w3.org/2000/svg" xmlns:xlink="http://www.w3.org/1999/xlink" width="500" zoomAndPan="magnify" viewBox="0 0 375 374.999991" height="500" preserveAspectRatio="xMidYMid meet" version="1.2"><defs><clipPath id="0df0b485d0"><path d="M 114 85.183594 L 261 85.183594 L 261 235.183594 L 114 235.183594 Z M 114 85.183594 "/></clipPath></defs><g id="f77fa3391e"><rect x="0" width="375" y="0" height="374.999991" style="fill:#ffffff;fill-opacity:1;stroke:none;"/><rect x="0" width="375" y="0" height="374.999991" style="fill:#ffffff;fill-opacity:1;stroke:none;"/><g clip-rule="nonzero" clip-path="url(#0df0b485d0)"><path style=" stroke:none;fill-rule:nonzero;fill:#f2a9c3;fill-opacity:1;" d="M 137.113281 209.914062 C 135.914062 209.46875 134.5625 209.316406 133.363281 209.316406 C 133.058594 210.664062 133.058594 212.011719 133.363281 213.203125 C 133.8125 214.996094 134.710938 216.796875 136.0625 218.136719 C 137.410156 219.484375 139.058594 220.382812 140.710938 220.980469 C 142.0625 221.277344 143.410156 221.433594 144.761719 221.277344 C 144.761719 220.53125 144.761719 219.78125 144.761719 219.1875 C 144.613281 218.292969 144.3125 217.542969 144.164062 216.648438 C 143.859375 216.046875 143.410156 215.300781 143.113281 214.550781 C 142.660156 213.953125 142.210938 213.351562 141.609375 212.757812 C 140.414062 211.410156 138.761719 210.515625 137.113281 209.914062 Z M 144.164062 133.796875 L 144.761719 133.796875 C 146.863281 133.492188 148.964844 132.601562 150.460938 131.25 C 152.109375 130.054688 153.460938 128.261719 154.210938 126.320312 C 155.113281 124.222656 155.261719 122.128906 154.964844 120.039062 C 154.808594 119.289062 154.660156 118.542969 154.363281 117.640625 C 154.210938 117.941406 153.914062 118.246094 153.757812 118.542969 C 151.058594 121.980469 145.960938 123.921875 144.460938 128.113281 C 143.710938 129.90625 143.5625 131.851562 144.164062 133.796875 Z M 157.511719 150.84375 C 158.261719 150.84375 159.160156 150.84375 159.914062 150.695312 C 162.761719 150.390625 165.609375 149.347656 168.015625 147.550781 C 170.410156 145.605469 172.214844 143.21875 173.261719 140.523438 C 173.710938 139.179688 174.164062 137.683594 174.3125 136.1875 C 173.863281 136.484375 173.5625 136.640625 173.261719 136.78125 C 167.261719 140.070312 159.609375 139.179688 157.664062 147.851562 C 157.511719 148.898438 157.363281 149.796875 157.511719 150.84375 Z M 157.214844 97.007812 C 156.3125 98.652344 155.5625 100.597656 155.414062 102.539062 C 165.609375 105.082031 167.859375 95.957031 173.867188 91.324219 L 174.164062 91.171875 C 172.964844 90.722656 171.765625 90.421875 170.558594 90.421875 C 168.015625 90.125 165.3125 90.574219 162.910156 91.773438 C 160.511719 92.96875 158.5625 94.761719 157.214844 97.007812 Z M 161.710938 217.242188 C 161.859375 217.394531 162.015625 217.542969 162.164062 217.542969 C 163.511719 216.046875 164.410156 214.101562 164.714844 212.160156 C 165.164062 208.71875 163.0625 204.683594 161.5625 201.386719 C 160.808594 202.136719 159.914062 203.933594 159.460938 204.832031 C 158.410156 206.921875 158.109375 209.164062 158.5625 211.410156 C 159.011719 213.804688 160.0625 215.746094 161.710938 217.242188 Z M 140.863281 193.617188 L 141.011719 193.617188 C 140.414062 191.222656 139.058594 189.128906 137.410156 187.632812 C 133.214844 183.894531 129.460938 185.238281 124.808594 183.445312 C 124.660156 183.445312 124.507812 183.445312 124.210938 183.296875 C 124.660156 184.941406 125.113281 186.4375 126.007812 187.628906 C 127.511719 190.023438 129.761719 191.96875 132.460938 193.164062 C 135.160156 194.214844 138.164062 194.363281 140.863281 193.617188 Z M 237.917969 209.914062 C 239.117188 209.46875 240.46875 209.316406 241.667969 209.316406 C 241.96875 210.664062 241.96875 212.011719 241.667969 213.203125 C 241.21875 214.996094 240.316406 216.796875 238.96875 218.136719 C 237.617188 219.484375 235.964844 220.382812 234.316406 220.980469 C 232.96875 221.277344 231.617188 221.433594 230.269531 221.277344 C 230.269531 220.53125 230.269531 219.78125 230.269531 219.1875 C 230.417969 218.292969 230.71875 217.542969 231.015625 216.648438 C 231.167969 216.046875 231.617188 215.300781 231.917969 214.550781 C 232.367188 213.953125 232.820312 213.351562 233.417969 212.757812 C 234.617188 211.410156 236.265625 210.515625 237.917969 209.914062 Z M 230.867188 133.796875 L 230.269531 133.796875 C 228.167969 133.492188 226.066406 132.601562 224.566406 131.25 C 222.914062 130.054688 221.566406 128.261719 220.816406 126.320312 C 219.917969 124.222656 219.769531 122.128906 220.066406 120.039062 C 220.214844 119.289062 220.367188 118.542969 220.667969 117.640625 C 220.816406 117.941406 221.117188 118.246094 221.265625 118.542969 C 223.964844 121.980469 229.070312 123.921875 230.566406 128.113281 C 231.320312 129.90625 231.46875 131.851562 230.867188 133.796875 Z M 217.515625 150.84375 C 216.765625 150.84375 215.863281 150.84375 215.117188 150.695312 C 212.269531 150.390625 209.414062 149.347656 207.015625 147.550781 C 204.617188 145.605469 202.816406 143.21875 201.765625 140.523438 C 201.3125 139.179688 200.867188 137.683594 200.867188 136.1875 C 201.164062 136.484375 201.46875 136.640625 201.765625 136.78125 C 207.765625 140.070312 215.417969 139.179688 217.367188 147.851562 C 217.515625 148.898438 217.667969 149.796875 217.515625 150.84375 Z M 217.816406 97.007812 C 218.71875 98.652344 219.46875 100.597656 219.617188 102.539062 C 209.414062 105.082031 207.164062 95.957031 201.164062 91.324219 L 200.867188 91.171875 C 202.066406 90.722656 203.265625 90.421875 204.464844 90.421875 C 207.015625 90.125 209.714844 90.574219 212.113281 91.773438 C 214.515625 92.96875 216.464844 94.761719 217.816406 97.007812 Z M 213.320312 217.242188 C 213.164062 217.394531 213.015625 217.542969 212.867188 217.542969 C 211.515625 216.046875 210.617188 214.101562 210.316406 212.160156 C 209.867188 208.71875 211.964844 204.683594 213.46875 201.386719 C 214.214844 202.136719 215.117188 203.933594 215.566406 204.832031 C 216.617188 206.921875 216.914062 209.164062 216.464844 211.410156 C 216.019531 213.804688 214.96875 215.746094 213.320312 217.242188 Z M 234.167969 193.617188 L 234.019531 193.617188 C 234.617188 191.222656 235.964844 189.128906 237.613281 187.632812 C 241.816406 183.894531 245.566406 185.238281 250.21875 183.445312 C 250.367188 183.445312 250.515625 183.445312 250.820312 183.296875 C 250.367188 184.941406 249.917969 186.4375 249.019531 187.628906 C 247.519531 190.023438 245.269531 191.96875 242.570312 193.164062 C 239.871094 194.214844 236.867188 194.363281 234.167969 193.617188 Z M 225.617188 222.773438 C 224.269531 224.871094 222.46875 226.664062 220.515625 227.863281 C 218.113281 229.355469 215.566406 230.101562 212.71875 230.253906 C 210.019531 230.402344 207.320312 229.804688 204.914062 228.609375 C 202.515625 227.410156 200.417969 225.617188 198.914062 223.226562 L 198.765625 223.078125 C 201.46875 224.566406 204.617188 225.167969 207.765625 224.871094 C 211.21875 224.417969 214.214844 222.921875 216.617188 220.832031 C 218.867188 218.589844 220.667969 215.597656 221.265625 212.308594 C 221.863281 209.015625 221.417969 205.726562 219.917969 202.734375 C 217.816406 198.253906 214.816406 196.601562 210.617188 194.511719 C 210.316406 202.734375 204.464844 203.933594 205.667969 212.757812 C 205.964844 215.300781 207.015625 217.691406 208.519531 219.78125 C 208.066406 219.9375 207.617188 219.9375 207.320312 220.085938 C 204.914062 220.234375 202.667969 219.78125 200.714844 218.738281 C 198.914062 217.691406 197.414062 216.046875 196.363281 214.101562 C 195.917969 209.617188 195.765625 200.34375 196.816406 196.304688 C 199.664062 186.585938 213.320312 186.289062 220.816406 190.921875 C 224.867188 193.464844 227.871094 196.90625 232.96875 198.253906 C 236.71875 199.296875 240.617188 198.996094 244.367188 197.503906 C 248.121094 196.007812 251.117188 193.464844 253.070312 190.171875 C 255.167969 187.03125 256.070312 183.148438 255.769531 179.109375 L 255.316406 175.070312 L 252.019531 177.3125 C 250.96875 178.058594 249.769531 178.511719 248.570312 178.957031 C 243.167969 180.902344 240.019531 179.109375 234.46875 184.042969 C 232.21875 185.984375 230.566406 188.527344 229.667969 191.519531 C 227.871094 190.472656 223.964844 185.6875 214.367188 183.445312 C 214.519531 183.296875 214.816406 183.148438 214.96875 182.992188 C 217.367188 180.753906 219.46875 178.207031 221.117188 175.519531 C 221.714844 174.324219 221.265625 172.828125 220.214844 172.230469 C 219.015625 171.480469 217.515625 171.929688 216.914062 173.125 C 215.566406 175.371094 213.765625 177.613281 211.816406 179.40625 C 206.566406 183.894531 201.765625 183.742188 196.816406 188.082031 C 196.667969 188.230469 196.363281 188.378906 196.214844 188.527344 C 195.617188 181.347656 196.816406 173.578125 202.816406 168.9375 C 206.867188 165.5 212.417969 164.597656 218.113281 166.097656 C 220.816406 166.695312 223.367188 167.894531 225.617188 169.539062 L 225.769531 169.6875 C 231.617188 173.125 237.015625 175.074219 241.96875 175.074219 C 247.070312 175.074219 251.566406 173.273438 255.621094 169.539062 L 255.769531 169.386719 C 257.871094 167.144531 259.371094 164.300781 260.269531 161.308594 C 261.019531 158.324219 261.019531 155.175781 260.421875 152.042969 C 259.667969 148.898438 258.167969 146.058594 256.21875 143.664062 C 254.117188 141.425781 251.566406 139.476562 248.71875 138.433594 C 247.667969 137.832031 246.46875 137.386719 245.117188 136.9375 C 247.070312 133.796875 248.121094 130.359375 248.417969 126.914062 C 248.71875 122.28125 247.667969 117.496094 245.269531 113.304688 C 242.71875 109.121094 239.117188 105.976562 234.765625 104.03125 C 231.617188 102.539062 228.019531 101.792969 224.417969 101.941406 C 224.121094 99.246094 223.21875 96.703125 221.863281 94.460938 C 220.066406 91.621094 217.515625 89.082031 214.214844 87.4375 C 211.0625 85.941406 207.46875 85.191406 204.015625 85.636719 C 201.3125 85.792969 196.964844 87.289062 193.0625 91.621094 C 199.964844 94.015625 200.867188 100.445312 206.867188 104.78125 C 208.066406 105.679688 209.265625 106.429688 210.617188 107.023438 C 209.867188 107.476562 209.265625 108.070312 208.667969 108.816406 C 205.367188 112.113281 203.117188 116.296875 202.214844 121.082031 C 202.066406 122.425781 202.816406 123.625 204.167969 123.921875 C 205.515625 124.074219 206.714844 123.328125 207.015625 121.980469 C 207.617188 118.089844 209.414062 114.800781 211.964844 112.113281 C 214.667969 109.566406 217.964844 107.625 221.867188 107.023438 C 225.617188 106.277344 229.519531 106.726562 232.820312 108.371094 C 236.269531 109.867188 239.117188 112.410156 241.070312 115.699219 C 243.015625 118.992188 243.917969 122.875 243.621094 126.464844 C 243.320312 129.757812 242.269531 132.898438 240.316406 135.589844 C 238.96875 135.292969 237.320312 134.839844 235.667969 134.542969 C 236.269531 131.851562 236.121094 129.007812 235.21875 126.464844 C 233.265625 121.230469 223.367188 117.496094 219.917969 110.015625 L 218.867188 111.363281 C 216.914062 113.757812 215.714844 116.445312 215.265625 119.289062 C 214.816406 122.28125 215.117188 125.269531 216.316406 127.960938 C 217.367188 130.804688 219.164062 133.195312 221.566406 134.988281 C 223.816406 136.78125 226.515625 138.136719 229.519531 138.433594 C 233.714844 139.027344 237.167969 139.773438 240.167969 140.375 C 242.867188 141.121094 245.117188 141.871094 246.617188 142.617188 L 246.765625 142.765625 C 249.019531 143.664062 250.96875 145.011719 252.46875 146.804688 C 253.96875 148.597656 255.167969 150.695312 255.621094 153.085938 C 256.21875 155.480469 256.21875 157.871094 255.621094 160.117188 C 255.019531 162.359375 253.816406 164.300781 252.167969 166.09375 C 249.46875 168.636719 246.167969 170.132812 242.71875 170.285156 C 243.015625 169.984375 243.167969 169.835938 243.316406 169.539062 C 245.566406 167.292969 246.921875 164.152344 246.921875 160.714844 C 246.765625 157.277344 245.417969 154.132812 243.167969 151.886719 C 240.765625 149.347656 237.617188 148.152344 234.167969 147.851562 C 229.519531 147.402344 226.515625 148.449219 222.316406 149.796875 C 222.316406 148.898438 222.316406 147.851562 222.019531 146.957031 C 219.617188 135.890625 211.667969 136.78125 204.011719 132.601562 C 202.664062 131.851562 201.46875 130.953125 200.269531 129.757812 L 196.964844 126.765625 L 196.214844 131.105469 C 195.617188 134.988281 195.917969 138.878906 197.414062 142.316406 C 198.765625 145.757812 201.015625 148.898438 204.167969 151.292969 C 207.164062 153.6875 210.914062 155.035156 214.664062 155.480469 C 216.316406 155.628906 218.113281 155.628906 219.917969 155.480469 C 225.164062 154.730469 227.871094 152.042969 233.714844 152.636719 C 236.117188 152.789062 238.21875 153.539062 239.714844 155.175781 C 241.21875 156.671875 241.96875 158.621094 242.117188 160.714844 C 242.117188 162.804688 241.21875 164.902344 239.871094 166.25 C 238.515625 167.742188 236.867188 168.636719 234.917969 168.789062 C 232.820312 168.042969 230.566406 166.992188 228.316406 165.5 C 225.613281 163.703125 222.46875 162.207031 219.316406 161.464844 C 213.917969 159.960938 210.167969 159.960938 205.367188 161.910156 C 205.367188 161.011719 205.367188 159.960938 205.21875 159.070312 C 204.765625 157.125 204.011719 155.480469 202.8125 153.984375 C 201.613281 152.492188 200.113281 151.441406 198.316406 150.542969 C 197.117188 150.09375 195.761719 150.542969 195.164062 151.742188 C 194.714844 152.9375 195.164062 154.429688 196.363281 155.03125 C 197.414062 155.480469 198.316406 156.078125 199.0625 156.976562 C 203.863281 162.953125 197.414062 166.695312 194.867188 170.730469 C 190.515625 177.910156 190.8125 187.03125 192.167969 195.109375 C 190.8125 200.34375 190.960938 210.511719 191.714844 216.046875 C 192.765625 222.921875 195.3125 229.203125 202.664062 232.796875 C 205.816406 234.441406 209.414062 235.1875 213.015625 235.039062 C 216.617188 234.886719 220.066406 233.839844 223.070312 232.046875 C 225.464844 230.402344 227.566406 228.457031 229.21875 225.914062 C 231.316406 226.21875 233.566406 226.0625 235.519531 225.617188 C 238.066406 224.871094 240.617188 223.375 242.414062 221.433594 C 244.367188 219.335938 245.714844 216.941406 246.320312 214.253906 C 246.917969 211.707031 246.765625 208.867188 245.871094 206.328125 L 245.417969 204.832031 L 243.917969 204.683594 C 241.367188 204.230469 238.820312 204.527344 236.417969 205.277344 C 234.019531 206.171875 231.769531 207.519531 229.964844 209.46875 C 229.21875 210.214844 228.46875 211.113281 227.871094 212.15625 C 227.265625 213.054688 226.820312 214.097656 226.367188 215.148438 C 226.066406 216.195312 225.769531 217.394531 225.617188 218.585938 C 225.464844 219.78125 225.464844 220.980469 225.464844 222.179688 C 225.46875 222.328125 225.617188 222.625 225.617188 222.773438 Z M 204.167969 108.371094 C 204.167969 106.273438 202.519531 104.636719 200.566406 104.636719 C 198.464844 104.636719 196.816406 106.273438 196.816406 108.371094 C 196.816406 110.464844 198.464844 112.109375 200.566406 112.109375 C 202.519531 112.113281 204.167969 110.464844 204.167969 108.371094 Z M 178.214844 108.371094 C 178.214844 106.273438 176.566406 104.636719 174.464844 104.636719 C 172.511719 104.636719 170.863281 106.273438 170.863281 108.371094 C 170.863281 110.464844 172.511719 112.109375 174.464844 112.109375 C 176.566406 112.113281 178.214844 110.464844 178.214844 108.371094 Z M 229.367188 181.199219 C 229.367188 179.109375 227.714844 177.464844 225.617188 177.464844 C 223.515625 177.464844 221.863281 179.109375 221.863281 181.199219 C 221.863281 183.296875 223.515625 184.941406 225.617188 184.941406 C 227.714844 184.941406 229.367188 183.296875 229.367188 181.199219 Z M 153.160156 181.199219 C 153.160156 179.109375 151.511719 177.464844 149.410156 177.464844 C 147.3125 177.464844 145.664062 179.109375 145.664062 181.199219 C 145.664062 183.296875 147.3125 184.941406 149.410156 184.941406 C 151.511719 184.941406 153.160156 183.296875 153.160156 181.199219 Z M 123.460938 133.648438 C 123.460938 131.550781 121.808594 129.90625 119.710938 129.90625 C 117.609375 129.90625 115.960938 131.550781 115.960938 133.648438 C 115.960938 135.738281 117.609375 137.386719 119.710938 137.386719 C 121.808594 137.386719 123.460938 135.738281 123.460938 133.648438 Z M 259.070312 133.648438 C 259.070312 131.550781 257.417969 129.90625 255.316406 129.90625 C 253.21875 129.90625 251.566406 131.550781 251.566406 133.648438 C 251.566406 135.738281 253.21875 137.386719 255.316406 137.386719 C 257.417969 137.386719 259.070312 135.738281 259.070312 133.648438 Z M 235.367188 94.910156 C 235.367188 92.820312 233.714844 91.171875 231.617188 91.171875 C 229.519531 91.171875 227.871094 92.820312 227.871094 94.910156 C 227.871094 97.007812 229.519531 98.652344 231.617188 98.652344 C 233.714844 98.652344 235.367188 97.007812 235.367188 94.910156 Z M 147.3125 94.910156 C 147.3125 92.820312 145.511719 91.171875 143.410156 91.171875 C 141.460938 91.171875 139.660156 92.820312 139.660156 94.910156 C 139.660156 97.007812 141.460938 98.652344 143.410156 98.652344 C 145.511719 98.652344 147.3125 97.007812 147.3125 94.910156 Z M 151.664062 202.882812 C 151.664062 200.792969 149.859375 199.148438 147.757812 199.148438 C 145.8125 199.148438 144.007812 200.792969 144.007812 202.882812 C 144.007812 204.980469 145.8125 206.625 147.757812 206.625 C 149.859375 206.625 151.664062 204.980469 151.664062 202.882812 Z M 231.015625 202.882812 C 231.015625 200.792969 229.21875 199.148438 227.265625 199.148438 C 225.164062 199.148438 223.367188 200.792969 223.367188 202.882812 C 223.367188 204.980469 225.164062 206.625 227.265625 206.625 C 229.21875 206.625 231.015625 204.980469 231.015625 202.882812 Z M 256.96875 201.988281 C 256.96875 199.898438 255.316406 198.253906 253.21875 198.253906 C 251.117188 198.253906 249.46875 199.898438 249.46875 201.988281 C 249.46875 204.082031 251.117188 205.726562 253.21875 205.726562 C 255.316406 205.726562 256.96875 204.082031 256.96875 201.988281 Z M 125.558594 201.988281 C 125.558594 199.898438 123.910156 198.253906 121.808594 198.253906 C 119.710938 198.253906 118.0625 199.898438 118.0625 201.988281 C 118.0625 204.082031 119.710938 205.726562 121.808594 205.726562 C 123.910156 205.726562 125.558594 204.082031 125.558594 201.988281 Z M 149.410156 222.773438 C 150.761719 224.871094 152.5625 226.664062 154.511719 227.863281 C 156.910156 229.355469 159.460938 230.101562 162.3125 230.253906 C 165.011719 230.402344 167.710938 229.804688 170.113281 228.609375 C 172.511719 227.410156 174.613281 225.617188 176.113281 223.226562 L 176.261719 223.078125 C 173.5625 224.566406 170.410156 225.167969 167.261719 224.871094 C 163.8125 224.417969 160.808594 222.921875 158.410156 220.832031 C 156.160156 218.589844 154.363281 215.597656 153.757812 212.308594 C 153.160156 209.015625 153.609375 205.726562 155.113281 202.734375 C 157.363281 198.253906 160.210938 196.601562 164.410156 194.511719 C 164.714844 202.734375 170.558594 203.933594 169.359375 212.757812 C 169.0625 215.300781 168.011719 217.691406 166.511719 219.78125 C 166.964844 219.9375 167.414062 219.9375 167.710938 220.085938 C 170.113281 220.234375 172.363281 219.78125 174.3125 218.738281 C 176.113281 217.691406 177.609375 216.046875 178.660156 214.101562 C 179.113281 209.617188 179.265625 200.34375 178.214844 196.304688 C 175.359375 186.585938 161.710938 186.289062 154.210938 190.921875 C 150.164062 193.464844 147.160156 196.90625 142.0625 198.253906 C 138.3125 199.296875 134.410156 198.996094 130.660156 197.503906 C 126.910156 196.007812 123.90625 193.464844 121.960938 190.171875 C 119.859375 187.03125 118.957031 183.148438 119.261719 179.109375 L 119.710938 175.070312 L 123.011719 177.3125 C 124.0625 178.058594 125.261719 178.511719 126.460938 178.957031 C 131.859375 180.902344 135.011719 179.109375 140.558594 184.042969 C 142.808594 185.984375 144.460938 188.527344 145.363281 191.519531 C 147.3125 190.472656 151.058594 185.6875 160.660156 183.445312 C 160.511719 183.296875 160.210938 183.148438 160.0625 182.992188 C 157.664062 180.753906 155.5625 178.207031 153.914062 175.519531 C 153.3125 174.324219 153.757812 172.828125 154.808594 172.230469 C 156.015625 171.480469 157.511719 171.929688 158.109375 173.125 C 159.460938 175.371094 161.261719 177.613281 163.210938 179.40625 C 168.464844 183.894531 173.261719 183.742188 178.214844 188.082031 C 178.363281 188.230469 178.660156 188.378906 178.816406 188.527344 C 179.414062 181.347656 178.214844 173.578125 172.214844 168.9375 C 168.160156 165.5 162.613281 164.597656 156.910156 166.097656 C 154.210938 166.695312 151.664062 167.894531 149.410156 169.539062 L 149.261719 169.6875 C 143.410156 173.125 138.007812 175.074219 133.058594 175.074219 C 127.960938 175.074219 123.460938 173.273438 119.410156 169.539062 L 119.261719 169.386719 C 117.160156 167.144531 115.660156 164.300781 114.757812 161.308594 C 114.007812 158.324219 114.007812 155.175781 114.609375 152.042969 C 115.363281 148.898438 116.859375 146.058594 118.808594 143.664062 C 120.910156 141.425781 123.460938 139.476562 126.3125 138.433594 C 127.363281 137.832031 128.558594 137.386719 129.90625 136.9375 C 127.960938 133.796875 126.910156 130.359375 126.609375 126.914062 C 126.3125 122.28125 127.359375 117.496094 129.757812 113.304688 C 132.3125 109.121094 135.914062 105.976562 140.261719 104.03125 C 143.410156 102.539062 147.011719 101.792969 150.613281 101.941406 C 150.910156 99.246094 151.8125 96.703125 153.160156 94.460938 C 154.964844 91.621094 157.511719 89.082031 160.808594 87.4375 C 163.960938 85.941406 167.5625 85.191406 171.011719 85.636719 C 173.710938 85.792969 178.0625 87.289062 181.964844 91.621094 C 175.0625 94.015625 174.164062 100.445312 168.164062 104.78125 C 166.964844 105.679688 165.765625 106.429688 164.410156 107.023438 C 165.164062 107.476562 165.765625 108.070312 166.363281 108.816406 C 169.664062 112.113281 171.914062 116.296875 172.816406 121.082031 C 172.964844 122.425781 172.214844 123.625 170.863281 123.921875 C 169.515625 124.074219 168.3125 123.328125 168.015625 121.980469 C 167.414062 118.089844 165.613281 114.800781 163.066406 112.113281 C 160.363281 109.566406 157.066406 107.625 153.160156 107.023438 C 149.410156 106.277344 145.511719 106.726562 142.210938 108.371094 C 138.761719 109.867188 135.914062 112.410156 133.960938 115.699219 C 132.007812 118.992188 131.113281 122.875 131.410156 126.464844 C 131.710938 129.757812 132.761719 132.898438 134.710938 135.589844 C 136.0625 135.292969 137.710938 134.839844 139.363281 134.542969 C 138.761719 131.851562 138.910156 129.007812 139.8125 126.464844 C 141.761719 121.230469 151.664062 117.496094 155.113281 110.015625 L 156.164062 111.363281 C 158.109375 113.757812 159.3125 116.445312 159.765625 119.289062 C 160.210938 122.28125 159.914062 125.269531 158.714844 127.960938 C 157.664062 130.804688 155.859375 133.195312 153.460938 134.988281 C 151.214844 136.78125 148.511719 138.136719 145.511719 138.433594 C 141.308594 139.027344 137.859375 139.773438 134.863281 140.375 C 132.164062 141.121094 129.910156 141.871094 128.414062 142.617188 L 128.257812 142.765625 C 126.007812 143.664062 124.0625 145.011719 122.5625 146.804688 C 121.058594 148.597656 119.859375 150.695312 119.410156 153.085938 C 118.8125 155.480469 118.8125 157.871094 119.410156 160.117188 C 120.007812 162.359375 121.207031 164.300781 122.859375 166.09375 C 125.558594 168.636719 128.863281 170.132812 132.3125 170.285156 C 132.007812 169.984375 131.859375 169.835938 131.710938 169.539062 C 129.464844 167.292969 128.109375 164.152344 128.109375 160.714844 C 128.257812 157.277344 129.613281 154.132812 131.859375 151.886719 C 134.257812 149.347656 137.410156 148.152344 140.863281 147.851562 C 145.511719 147.402344 148.660156 148.449219 152.714844 149.796875 C 152.714844 148.898438 152.863281 147.851562 153.011719 146.957031 C 155.414062 135.890625 163.363281 136.78125 171.011719 132.601562 C 172.363281 131.851562 173.5625 130.953125 174.761719 129.757812 L 178.0625 126.765625 L 178.816406 131.105469 C 179.414062 134.988281 179.113281 138.878906 177.765625 142.316406 C 176.261719 145.757812 174.015625 148.898438 170.863281 151.292969 C 167.859375 153.6875 164.113281 155.035156 160.363281 155.480469 C 158.714844 155.628906 156.910156 155.628906 155.113281 155.480469 C 149.859375 154.730469 147.160156 152.042969 141.308594 152.636719 C 138.910156 152.789062 136.808594 153.539062 135.308594 155.175781 C 133.8125 156.671875 133.058594 158.621094 132.910156 160.714844 C 132.910156 162.804688 133.8125 164.902344 135.160156 166.25 C 136.511719 167.742188 138.164062 168.636719 140.109375 168.789062 C 142.210938 168.042969 144.460938 166.992188 146.710938 165.5 C 149.410156 163.703125 152.5625 162.207031 155.710938 161.464844 C 161.113281 159.960938 164.863281 159.960938 169.664062 161.910156 C 169.664062 161.011719 169.664062 159.960938 169.8125 159.070312 C 170.261719 157.125 171.011719 155.480469 172.214844 153.984375 C 173.414062 152.492188 174.914062 151.441406 176.714844 150.542969 C 177.914062 150.09375 179.265625 150.542969 179.863281 151.742188 C 180.3125 152.9375 179.863281 154.429688 178.660156 155.03125 C 177.609375 155.480469 176.714844 156.078125 175.960938 156.976562 C 171.164062 162.953125 177.609375 166.695312 180.160156 170.730469 C 184.511719 177.910156 184.363281 187.03125 182.863281 195.109375 C 184.214844 200.34375 184.0625 210.511719 183.3125 216.046875 C 182.261719 222.921875 179.710938 229.203125 172.363281 232.796875 C 169.210938 234.441406 165.609375 235.1875 162.011719 235.039062 C 158.410156 234.886719 154.964844 233.839844 151.960938 232.046875 C 149.5625 230.402344 147.460938 228.457031 145.8125 225.914062 C 143.710938 226.21875 141.460938 226.0625 139.511719 225.617188 C 136.957031 224.871094 134.5625 223.375 132.609375 221.433594 C 130.660156 219.335938 129.308594 216.941406 128.710938 214.253906 C 128.109375 211.707031 128.257812 208.867188 129.160156 206.328125 L 129.609375 204.832031 L 131.113281 204.683594 C 133.660156 204.230469 136.210938 204.527344 138.613281 205.277344 C 141.011719 206.171875 143.261719 207.519531 145.058594 209.46875 C 145.8125 210.214844 146.5625 211.113281 147.160156 212.15625 C 147.757812 213.054688 148.210938 214.097656 148.660156 215.148438 C 148.964844 216.195312 149.261719 217.394531 149.410156 218.585938 C 149.5625 219.78125 149.5625 220.980469 149.5625 222.179688 C 149.5625 222.328125 149.410156 222.625 149.410156 222.773438 Z M 149.410156 222.773438 "/></g><g style="fill:#699992;fill-opacity:0.4;"><g transform="translate(122.091617, 287.145128)"><path style="stroke:none" d="M 4.28125 -7.9375 C 5.3125 -7.9375 6.117188 -7.691406 6.703125 -7.203125 C 7.296875 -6.710938 7.59375 -6.035156 7.59375 -5.171875 C 7.59375 -4.304688 7.296875 -3.628906 6.703125 -3.140625 C 6.117188 -2.648438 5.3125 -2.40625 4.28125 -2.40625 L 2.328125 -2.40625 L 2.328125 0 L 1.1875 0 L 1.1875 -7.9375 Z M 4.25 -3.390625 C 4.96875 -3.390625 5.515625 -3.539062 5.890625 -3.84375 C 6.273438 -4.15625 6.46875 -4.597656 6.46875 -5.171875 C 6.46875 -5.742188 6.273438 -6.179688 5.890625 -6.484375 C 5.515625 -6.796875 4.96875 -6.953125 4.25 -6.953125 L 2.328125 -6.953125 L 2.328125 -3.390625 Z M 4.25 -3.390625 "/></g></g><g style="fill:#699992;fill-opacity:0.4;"><g transform="translate(131.24665, 287.145128)"><path style="stroke:none" d="M 3.5 0.09375 C 2.90625 0.09375 2.328125 0 1.765625 -0.1875 C 1.210938 -0.375 0.78125 -0.613281 0.46875 -0.90625 L 0.890625 -1.796875 C 1.191406 -1.523438 1.578125 -1.300781 2.046875 -1.125 C 2.515625 -0.957031 3 -0.875 3.5 -0.875 C 4.15625 -0.875 4.644531 -0.984375 4.96875 -1.203125 C 5.300781 -1.429688 5.46875 -1.726562 5.46875 -2.09375 C 5.46875 -2.363281 5.378906 -2.582031 5.203125 -2.75 C 5.023438 -2.925781 4.804688 -3.0625 4.546875 -3.15625 C 4.285156 -3.25 3.914062 -3.347656 3.4375 -3.453125 C 2.84375 -3.597656 2.359375 -3.742188 1.984375 -3.890625 C 1.617188 -4.035156 1.304688 -4.253906 1.046875 -4.546875 C 0.785156 -4.847656 0.65625 -5.253906 0.65625 -5.765625 C 0.65625 -6.179688 0.765625 -6.5625 0.984375 -6.90625 C 1.210938 -7.25 1.550781 -7.519531 2 -7.71875 C 2.457031 -7.925781 3.023438 -8.03125 3.703125 -8.03125 C 4.171875 -8.03125 4.628906 -7.96875 5.078125 -7.84375 C 5.535156 -7.726562 5.925781 -7.554688 6.25 -7.328125 L 5.875 -6.421875 C 5.539062 -6.628906 5.1875 -6.785156 4.8125 -6.890625 C 4.4375 -7.003906 4.066406 -7.0625 3.703125 -7.0625 C 3.054688 -7.0625 2.570312 -6.941406 2.25 -6.703125 C 1.925781 -6.472656 1.765625 -6.175781 1.765625 -5.8125 C 1.765625 -5.539062 1.851562 -5.316406 2.03125 -5.140625 C 2.21875 -4.972656 2.445312 -4.84375 2.71875 -4.75 C 2.988281 -4.65625 3.351562 -4.554688 3.8125 -4.453125 C 4.40625 -4.304688 4.882812 -4.160156 5.25 -4.015625 C 5.613281 -3.867188 5.925781 -3.648438 6.1875 -3.359375 C 6.445312 -3.066406 6.578125 -2.671875 6.578125 -2.171875 C 6.578125 -1.753906 6.460938 -1.375 6.234375 -1.03125 C 6.015625 -0.6875 5.671875 -0.410156 5.203125 -0.203125 C 4.742188 -0.00390625 4.175781 0.09375 3.5 0.09375 Z M 3.5 0.09375 "/></g></g><g style="fill:#699992;fill-opacity:0.4;"><g transform="translate(139.255969, 287.145128)"><path style="stroke:none" d="M 4.234375 -2.75 L 4.234375 0 L 3.109375 0 L 3.109375 -2.765625 L -0.046875 -7.9375 L 1.171875 -7.9375 L 3.703125 -3.75 L 6.265625 -7.9375 L 7.390625 -7.9375 Z M 4.234375 -2.75 "/></g></g><g style="fill:#699992;fill-opacity:0.4;"><g transform="translate(147.560224, 287.145128)"><path style="stroke:none" d="M 4.734375 0.09375 C 3.941406 0.09375 3.226562 -0.0820312 2.59375 -0.4375 C 1.957031 -0.789062 1.457031 -1.273438 1.09375 -1.890625 C 0.726562 -2.503906 0.546875 -3.195312 0.546875 -3.96875 C 0.546875 -4.738281 0.726562 -5.429688 1.09375 -6.046875 C 1.457031 -6.660156 1.957031 -7.144531 2.59375 -7.5 C 3.238281 -7.851562 3.957031 -8.03125 4.75 -8.03125 C 5.375 -8.03125 5.941406 -7.925781 6.453125 -7.71875 C 6.960938 -7.507812 7.398438 -7.203125 7.765625 -6.796875 L 7.03125 -6.078125 C 6.4375 -6.703125 5.691406 -7.015625 4.796875 -7.015625 C 4.203125 -7.015625 3.664062 -6.882812 3.1875 -6.625 C 2.71875 -6.363281 2.347656 -6 2.078125 -5.53125 C 1.804688 -5.0625 1.671875 -4.539062 1.671875 -3.96875 C 1.671875 -3.394531 1.804688 -2.875 2.078125 -2.40625 C 2.347656 -1.945312 2.71875 -1.582031 3.1875 -1.3125 C 3.664062 -1.050781 4.203125 -0.921875 4.796875 -0.921875 C 5.679688 -0.921875 6.425781 -1.238281 7.03125 -1.875 L 7.765625 -1.15625 C 7.398438 -0.75 6.957031 -0.4375 6.4375 -0.21875 C 5.925781 -0.0078125 5.359375 0.09375 4.734375 0.09375 Z M 4.734375 0.09375 "/></g></g><g style="fill:#699992;fill-opacity:0.4;"><g transform="translate(156.726598, 287.145128)"><path style="stroke:none" d="M 8.015625 -7.9375 L 8.015625 0 L 6.890625 0 L 6.890625 -3.546875 L 2.328125 -3.546875 L 2.328125 0 L 1.1875 0 L 1.1875 -7.9375 L 2.328125 -7.9375 L 2.328125 -4.53125 L 6.890625 -4.53125 L 6.890625 -7.9375 Z M 8.015625 -7.9375 "/></g></g><g style="fill:#699992;fill-opacity:0.4;"><g transform="translate(166.902569, 287.145128)"><path style="stroke:none" d="M 4.78125 0.09375 C 3.976562 0.09375 3.253906 -0.0820312 2.609375 -0.4375 C 1.960938 -0.789062 1.457031 -1.273438 1.09375 -1.890625 C 0.726562 -2.515625 0.546875 -3.207031 0.546875 -3.96875 C 0.546875 -4.726562 0.726562 -5.414062 1.09375 -6.03125 C 1.457031 -6.65625 1.960938 -7.144531 2.609375 -7.5 C 3.253906 -7.851562 3.976562 -8.03125 4.78125 -8.03125 C 5.570312 -8.03125 6.285156 -7.851562 6.921875 -7.5 C 7.566406 -7.144531 8.070312 -6.660156 8.4375 -6.046875 C 8.800781 -5.429688 8.984375 -4.738281 8.984375 -3.96875 C 8.984375 -3.195312 8.800781 -2.503906 8.4375 -1.890625 C 8.070312 -1.273438 7.566406 -0.789062 6.921875 -0.4375 C 6.285156 -0.0820312 5.570312 0.09375 4.78125 0.09375 Z M 4.78125 -0.921875 C 5.363281 -0.921875 5.882812 -1.050781 6.34375 -1.3125 C 6.8125 -1.582031 7.175781 -1.945312 7.4375 -2.40625 C 7.707031 -2.875 7.84375 -3.394531 7.84375 -3.96875 C 7.84375 -4.539062 7.707031 -5.0625 7.4375 -5.53125 C 7.175781 -6 6.8125 -6.363281 6.34375 -6.625 C 5.882812 -6.882812 5.363281 -7.015625 4.78125 -7.015625 C 4.195312 -7.015625 3.664062 -6.882812 3.1875 -6.625 C 2.71875 -6.363281 2.347656 -6 2.078125 -5.53125 C 1.804688 -5.0625 1.671875 -4.539062 1.671875 -3.96875 C 1.671875 -3.394531 1.804688 -2.875 2.078125 -2.40625 C 2.347656 -1.945312 2.71875 -1.582031 3.1875 -1.3125 C 3.664062 -1.050781 4.195312 -0.921875 4.78125 -0.921875 Z M 4.78125 -0.921875 "/></g></g><g style="fill:#699992;fill-opacity:0.4;"><g transform="translate(177.396171, 287.145128)"><path style="stroke:none" d="M 1.1875 -7.9375 L 2.328125 -7.9375 L 2.328125 -0.984375 L 6.625 -0.984375 L 6.625 0 L 1.1875 0 Z M 1.1875 -7.9375 "/></g></g><g style="fill:#699992;fill-opacity:0.4;"><g transform="translate(185.099201, 287.145128)"><path style="stroke:none" d="M 4.78125 0.09375 C 3.976562 0.09375 3.253906 -0.0820312 2.609375 -0.4375 C 1.960938 -0.789062 1.457031 -1.273438 1.09375 -1.890625 C 0.726562 -2.515625 0.546875 -3.207031 0.546875 -3.96875 C 0.546875 -4.726562 0.726562 -5.414062 1.09375 -6.03125 C 1.457031 -6.65625 1.960938 -7.144531 2.609375 -7.5 C 3.253906 -7.851562 3.976562 -8.03125 4.78125 -8.03125 C 5.570312 -8.03125 6.285156 -7.851562 6.921875 -7.5 C 7.566406 -7.144531 8.070312 -6.660156 8.4375 -6.046875 C 8.800781 -5.429688 8.984375 -4.738281 8.984375 -3.96875 C 8.984375 -3.195312 8.800781 -2.503906 8.4375 -1.890625 C 8.070312 -1.273438 7.566406 -0.789062 6.921875 -0.4375 C 6.285156 -0.0820312 5.570312 0.09375 4.78125 0.09375 Z M 4.78125 -0.921875 C 5.363281 -0.921875 5.882812 -1.050781 6.34375 -1.3125 C 6.8125 -1.582031 7.175781 -1.945312 7.4375 -2.40625 C 7.707031 -2.875 7.84375 -3.394531 7.84375 -3.96875 C 7.84375 -4.539062 7.707031 -5.0625 7.4375 -5.53125 C 7.175781 -6 6.8125 -6.363281 6.34375 -6.625 C 5.882812 -6.882812 5.363281 -7.015625 4.78125 -7.015625 C 4.195312 -7.015625 3.664062 -6.882812 3.1875 -6.625 C 2.71875 -6.363281 2.347656 -6 2.078125 -5.53125 C 1.804688 -5.0625 1.671875 -4.539062 1.671875 -3.96875 C 1.671875 -3.394531 1.804688 -2.875 2.078125 -2.40625 C 2.347656 -1.945312 2.71875 -1.582031 3.1875 -1.3125 C 3.664062 -1.050781 4.195312 -0.921875 4.78125 -0.921875 Z M 4.78125 -0.921875 "/></g></g><g style="fill:#699992;fill-opacity:0.4;"><g transform="translate(195.592803, 287.145128)"><path style="stroke:none" d="M 6.6875 -4.015625 L 7.78125 -4.015625 L 7.78125 -0.921875 C 7.382812 -0.597656 6.925781 -0.347656 6.40625 -0.171875 C 5.882812 0.00390625 5.34375 0.09375 4.78125 0.09375 C 3.976562 0.09375 3.253906 -0.0820312 2.609375 -0.4375 C 1.960938 -0.789062 1.457031 -1.273438 1.09375 -1.890625 C 0.726562 -2.503906 0.546875 -3.195312 0.546875 -3.96875 C 0.546875 -4.738281 0.726562 -5.429688 1.09375 -6.046875 C 1.457031 -6.671875 1.960938 -7.15625 2.609375 -7.5 C 3.253906 -7.851562 3.984375 -8.03125 4.796875 -8.03125 C 5.429688 -8.03125 6.007812 -7.925781 6.53125 -7.71875 C 7.050781 -7.507812 7.488281 -7.207031 7.84375 -6.8125 L 7.140625 -6.109375 C 6.503906 -6.710938 5.738281 -7.015625 4.84375 -7.015625 C 4.238281 -7.015625 3.695312 -6.882812 3.21875 -6.625 C 2.738281 -6.363281 2.359375 -6 2.078125 -5.53125 C 1.804688 -5.070312 1.671875 -4.550781 1.671875 -3.96875 C 1.671875 -3.394531 1.804688 -2.875 2.078125 -2.40625 C 2.359375 -1.945312 2.738281 -1.582031 3.21875 -1.3125 C 3.695312 -1.050781 4.234375 -0.921875 4.828125 -0.921875 C 5.546875 -0.921875 6.164062 -1.085938 6.6875 -1.421875 Z M 6.6875 -4.015625 "/></g></g><g style="fill:#699992;fill-opacity:0.4;"><g transform="translate(205.315027, 287.145128)"><path style="stroke:none" d="M 4.234375 -2.75 L 4.234375 0 L 3.109375 0 L 3.109375 -2.765625 L -0.046875 -7.9375 L 1.171875 -7.9375 L 3.703125 -3.75 L 6.265625 -7.9375 L 7.390625 -7.9375 Z M 4.234375 -2.75 "/></g></g><g style="fill:#699992;fill-opacity:0.4;"><g transform="translate(213.619283, 287.145128)"><path style="stroke:none" d=""/></g></g><g style="fill:#699992;fill-opacity:0.4;"><g transform="translate(217.635587, 287.145128)"><path style="stroke:none" d="M 4.734375 0.09375 C 3.941406 0.09375 3.226562 -0.0820312 2.59375 -0.4375 C 1.957031 -0.789062 1.457031 -1.273438 1.09375 -1.890625 C 0.726562 -2.503906 0.546875 -3.195312 0.546875 -3.96875 C 0.546875 -4.738281 0.726562 -5.429688 1.09375 -6.046875 C 1.457031 -6.660156 1.957031 -7.144531 2.59375 -7.5 C 3.238281 -7.851562 3.957031 -8.03125 4.75 -8.03125 C 5.375 -8.03125 5.941406 -7.925781 6.453125 -7.71875 C 6.960938 -7.507812 7.398438 -7.203125 7.765625 -6.796875 L 7.03125 -6.078125 C 6.4375 -6.703125 5.691406 -7.015625 4.796875 -7.015625 C 4.203125 -7.015625 3.664062 -6.882812 3.1875 -6.625 C 2.71875 -6.363281 2.347656 -6 2.078125 -5.53125 C 1.804688 -5.0625 1.671875 -4.539062 1.671875 -3.96875 C 1.671875 -3.394531 1.804688 -2.875 2.078125 -2.40625 C 2.347656 -1.945312 2.71875 -1.582031 3.1875 -1.3125 C 3.664062 -1.050781 4.203125 -0.921875 4.796875 -0.921875 C 5.679688 -0.921875 6.425781 -1.238281 7.03125 -1.875 L 7.765625 -1.15625 C 7.398438 -0.75 6.957031 -0.4375 6.4375 -0.21875 C 5.925781 -0.0078125 5.359375 0.09375 4.734375 0.09375 Z M 4.734375 0.09375 "/></g></g><g style="fill:#699992;fill-opacity:0.4;"><g transform="translate(226.80196, 287.145128)"><path style="stroke:none" d="M 6.25 -1.984375 L 2.03125 -1.984375 L 1.15625 0 L -0.015625 0 L 3.578125 -7.9375 L 4.703125 -7.9375 L 8.3125 0 L 7.125 0 Z M 5.859375 -2.890625 L 4.140625 -6.78125 L 2.421875 -2.890625 Z M 5.859375 -2.890625 "/></g></g><g style="fill:#699992;fill-opacity:0.4;"><g transform="translate(236.070438, 287.145128)"><path style="stroke:none" d="M 6.5 0 L 4.78125 -2.4375 C 4.570312 -2.425781 4.40625 -2.421875 4.28125 -2.421875 L 2.328125 -2.421875 L 2.328125 0 L 1.1875 0 L 1.1875 -7.9375 L 4.28125 -7.9375 C 5.3125 -7.9375 6.117188 -7.691406 6.703125 -7.203125 C 7.296875 -6.710938 7.59375 -6.035156 7.59375 -5.171875 C 7.59375 -4.554688 7.441406 -4.03125 7.140625 -3.59375 C 6.835938 -3.164062 6.410156 -2.859375 5.859375 -2.671875 L 7.734375 0 Z M 4.25 -3.375 C 4.96875 -3.375 5.515625 -3.53125 5.890625 -3.84375 C 6.273438 -4.15625 6.46875 -4.597656 6.46875 -5.171875 C 6.46875 -5.742188 6.273438 -6.179688 5.890625 -6.484375 C 5.515625 -6.796875 4.96875 -6.953125 4.25 -6.953125 L 2.328125 -6.953125 L 2.328125 -3.375 Z M 4.25 -3.375 "/></g></g><g style="fill:#699992;fill-opacity:0.4;"><g transform="translate(245.282188, 287.145128)"><path style="stroke:none" d="M 6.953125 -0.984375 L 6.953125 0 L 1.1875 0 L 1.1875 -7.9375 L 6.796875 -7.9375 L 6.796875 -6.953125 L 2.328125 -6.953125 L 2.328125 -4.515625 L 6.3125 -4.515625 L 6.3125 -3.546875 L 2.328125 -3.546875 L 2.328125 -0.984375 Z M 6.953125 -0.984375 "/></g></g><g style="fill:#f2a9c3;fill-opacity:1;"><g transform="translate(122.091617, 287.145128)"><path style="stroke:none" d="M 4.28125 -7.9375 C 5.3125 -7.9375 6.117188 -7.691406 6.703125 -7.203125 C 7.296875 -6.710938 7.59375 -6.035156 7.59375 -5.171875 C 7.59375 -4.304688 7.296875 -3.628906 6.703125 -3.140625 C 6.117188 -2.648438 5.3125 -2.40625 4.28125 -2.40625 L 2.328125 -2.40625 L 2.328125 0 L 1.1875 0 L 1.1875 -7.9375 Z M 4.25 -3.390625 C 4.96875 -3.390625 5.515625 -3.539062 5.890625 -3.84375 C 6.273438 -4.15625 6.46875 -4.597656 6.46875 -5.171875 C 6.46875 -5.742188 6.273438 -6.179688 5.890625 -6.484375 C 5.515625 -6.796875 4.96875 -6.953125 4.25 -6.953125 L 2.328125 -6.953125 L 2.328125 -3.390625 Z M 4.25 -3.390625 "/></g></g><g style="fill:#f2a9c3;fill-opacity:1;"><g transform="translate(131.24665, 287.145128)"><path style="stroke:none" d="M 3.5 0.09375 C 2.90625 0.09375 2.328125 0 1.765625 -0.1875 C 1.210938 -0.375 0.78125 -0.613281 0.46875 -0.90625 L 0.890625 -1.796875 C 1.191406 -1.523438 1.578125 -1.300781 2.046875 -1.125 C 2.515625 -0.957031 3 -0.875 3.5 -0.875 C 4.15625 -0.875 4.644531 -0.984375 4.96875 -1.203125 C 5.300781 -1.429688 5.46875 -1.726562 5.46875 -2.09375 C 5.46875 -2.363281 5.378906 -2.582031 5.203125 -2.75 C 5.023438 -2.925781 4.804688 -3.0625 4.546875 -3.15625 C 4.285156 -3.25 3.914062 -3.347656 3.4375 -3.453125 C 2.84375 -3.597656 2.359375 -3.742188 1.984375 -3.890625 C 1.617188 -4.035156 1.304688 -4.253906 1.046875 -4.546875 C 0.785156 -4.847656 0.65625 -5.253906 0.65625 -5.765625 C 0.65625 -6.179688 0.765625 -6.5625 0.984375 -6.90625 C 1.210938 -7.25 1.550781 -7.519531 2 -7.71875 C 2.457031 -7.925781 3.023438 -8.03125 3.703125 -8.03125 C 4.171875 -8.03125 4.628906 -7.96875 5.078125 -7.84375 C 5.535156 -7.726562 5.925781 -7.554688 6.25 -7.328125 L 5.875 -6.421875 C 5.539062 -6.628906 5.1875 -6.785156 4.8125 -6.890625 C 4.4375 -7.003906 4.066406 -7.0625 3.703125 -7.0625 C 3.054688 -7.0625 2.570312 -6.941406 2.25 -6.703125 C 1.925781 -6.472656 1.765625 -6.175781 1.765625 -5.8125 C 1.765625 -5.539062 1.851562 -5.316406 2.03125 -5.140625 C 2.21875 -4.972656 2.445312 -4.84375 2.71875 -4.75 C 2.988281 -4.65625 3.351562 -4.554688 3.8125 -4.453125 C 4.40625 -4.304688 4.882812 -4.160156 5.25 -4.015625 C 5.613281 -3.867188 5.925781 -3.648438 6.1875 -3.359375 C 6.445312 -3.066406 6.578125 -2.671875 6.578125 -2.171875 C 6.578125 -1.753906 6.460938 -1.375 6.234375 -1.03125 C 6.015625 -0.6875 5.671875 -0.410156 5.203125 -0.203125 C 4.742188 -0.00390625 4.175781 0.09375 3.5 0.09375 Z M 3.5 0.09375 "/></g></g><g style="fill:#f2a9c3;fill-opacity:1;"><g transform="translate(139.255969, 287.145128)"><path style="stroke:none" d="M 4.234375 -2.75 L 4.234375 0 L 3.109375 0 L 3.109375 -2.765625 L -0.046875 -7.9375 L 1.171875 -7.9375 L 3.703125 -3.75 L 6.265625 -7.9375 L 7.390625 -7.9375 Z M 4.234375 -2.75 "/></g></g><g style="fill:#f2a9c3;fill-opacity:1;"><g transform="translate(147.560224, 287.145128)"><path style="stroke:none" d="M 4.734375 0.09375 C 3.941406 0.09375 3.226562 -0.0820312 2.59375 -0.4375 C 1.957031 -0.789062 1.457031 -1.273438 1.09375 -1.890625 C 0.726562 -2.503906 0.546875 -3.195312 0.546875 -3.96875 C 0.546875 -4.738281 0.726562 -5.429688 1.09375 -6.046875 C 1.457031 -6.660156 1.957031 -7.144531 2.59375 -7.5 C 3.238281 -7.851562 3.957031 -8.03125 4.75 -8.03125 C 5.375 -8.03125 5.941406 -7.925781 6.453125 -7.71875 C 6.960938 -7.507812 7.398438 -7.203125 7.765625 -6.796875 L 7.03125 -6.078125 C 6.4375 -6.703125 5.691406 -7.015625 4.796875 -7.015625 C 4.203125 -7.015625 3.664062 -6.882812 3.1875 -6.625 C 2.71875 -6.363281 2.347656 -6 2.078125 -5.53125 C 1.804688 -5.0625 1.671875 -4.539062 1.671875 -3.96875 C 1.671875 -3.394531 1.804688 -2.875 2.078125 -2.40625 C 2.347656 -1.945312 2.71875 -1.582031 3.1875 -1.3125 C 3.664062 -1.050781 4.203125 -0.921875 4.796875 -0.921875 C 5.679688 -0.921875 6.425781 -1.238281 7.03125 -1.875 L 7.765625 -1.15625 C 7.398438 -0.75 6.957031 -0.4375 6.4375 -0.21875 C 5.925781 -0.0078125 5.359375 0.09375 4.734375 0.09375 Z M 4.734375 0.09375 "/></g></g><g style="fill:#f2a9c3;fill-opacity:1;"><g transform="translate(156.726598, 287.145128)"><path style="stroke:none" d="M 8.015625 -7.9375 L 8.015625 0 L 6.890625 0 L 6.890625 -3.546875 L 2.328125 -3.546875 L 2.328125 0 L 1.1875 0 L 1.1875 -7.9375 L 2.328125 -7.9375 L 2.328125 -4.53125 L 6.890625 -4.53125 L 6.890625 -7.9375 Z M 8.015625 -7.9375 "/></g></g><g style="fill:#f2a9c3;fill-opacity:1;"><g transform="translate(166.902569, 287.145128)"><path style="stroke:none" d="M 4.78125 0.09375 C 3.976562 0.09375 3.253906 -0.0820312 2.609375 -0.4375 C 1.960938 -0.789062 1.457031 -1.273438 1.09375 -1.890625 C 0.726562 -2.515625 0.546875 -3.207031 0.546875 -3.96875 C 0.546875 -4.726562 0.726562 -5.414062 1.09375 -6.03125 C 1.457031 -6.65625 1.960938 -7.144531 2.609375 -7.5 C 3.253906 -7.851562 3.976562 -8.03125 4.78125 -8.03125 C 5.570312 -8.03125 6.285156 -7.851562 6.921875 -7.5 C 7.566406 -7.144531 8.070312 -6.660156 8.4375 -6.046875 C 8.800781 -5.429688 8.984375 -4.738281 8.984375 -3.96875 C 8.984375 -3.195312 8.800781 -2.503906 8.4375 -1.890625 C 8.070312 -1.273438 7.566406 -0.789062 6.921875 -0.4375 C 6.285156 -0.0820312 5.570312 0.09375 4.78125 0.09375 Z M 4.78125 -0.921875 C 5.363281 -0.921875 5.882812 -1.050781 6.34375 -1.3125 C 6.8125 -1.582031 7.175781 -1.945312 7.4375 -2.40625 C 7.707031 -2.875 7.84375 -3.394531 7.84375 -3.96875 C 7.84375 -4.539062 7.707031 -5.0625 7.4375 -5.53125 C 7.175781 -6 6.8125 -6.363281 6.34375 -6.625 C 5.882812 -6.882812 5.363281 -7.015625 4.78125 -7.015625 C 4.195312 -7.015625 3.664062 -6.882812 3.1875 -6.625 C 2.71875 -6.363281 2.347656 -6 2.078125 -5.53125 C 1.804688 -5.0625 1.671875 -4.539062 1.671875 -3.96875 C 1.671875 -3.394531 1.804688 -2.875 2.078125 -2.40625 C 2.347656 -1.945312 2.71875 -1.582031 3.1875 -1.3125 C 3.664062 -1.050781 4.195312 -0.921875 4.78125 -0.921875 Z M 4.78125 -0.921875 "/></g></g><g style="fill:#f2a9c3;fill-opacity:1;"><g transform="translate(177.396171, 287.145128)"><path style="stroke:none" d="M 1.1875 -7.9375 L 2.328125 -7.9375 L 2.328125 -0.984375 L 6.625 -0.984375 L 6.625 0 L 1.1875 0 Z M 1.1875 -7.9375 "/></g></g><g style="fill:#f2a9c3;fill-opacity:1;"><g transform="translate(185.099201, 287.145128)"><path style="stroke:none" d="M 4.78125 0.09375 C 3.976562 0.09375 3.253906 -0.0820312 2.609375 -0.4375 C 1.960938 -0.789062 1.457031 -1.273438 1.09375 -1.890625 C 0.726562 -2.515625 0.546875 -3.207031 0.546875 -3.96875 C 0.546875 -4.726562 0.726562 -5.414062 1.09375 -6.03125 C 1.457031 -6.65625 1.960938 -7.144531 2.609375 -7.5 C 3.253906 -7.851562 3.976562 -8.03125 4.78125 -8.03125 C 5.570312 -8.03125 6.285156 -7.851562 6.921875 -7.5 C 7.566406 -7.144531 8.070312 -6.660156 8.4375 -6.046875 C 8.800781 -5.429688 8.984375 -4.738281 8.984375 -3.96875 C 8.984375 -3.195312 8.800781 -2.503906 8.4375 -1.890625 C 8.070312 -1.273438 7.566406 -0.789062 6.921875 -0.4375 C 6.285156 -0.0820312 5.570312 0.09375 4.78125 0.09375 Z M 4.78125 -0.921875 C 5.363281 -0.921875 5.882812 -1.050781 6.34375 -1.3125 C 6.8125 -1.582031 7.175781 -1.945312 7.4375 -2.40625 C 7.707031 -2.875 7.84375 -3.394531 7.84375 -3.96875 C 7.84375 -4.539062 7.707031 -5.0625 7.4375 -5.53125 C 7.175781 -6 6.8125 -6.363281 6.34375 -6.625 C 5.882812 -6.882812 5.363281 -7.015625 4.78125 -7.015625 C 4.195312 -7.015625 3.664062 -6.882812 3.1875 -6.625 C 2.71875 -6.363281 2.347656 -6 2.078125 -5.53125 C 1.804688 -5.0625 1.671875 -4.539062 1.671875 -3.96875 C 1.671875 -3.394531 1.804688 -2.875 2.078125 -2.40625 C 2.347656 -1.945312 2.71875 -1.582031 3.1875 -1.3125 C 3.664062 -1.050781 4.195312 -0.921875 4.78125 -0.921875 Z M 4.78125 -0.921875 "/></g></g><g style="fill:#f2a9c3;fill-opacity:1;"><g transform="translate(195.592803, 287.145128)"><path style="stroke:none" d="M 6.6875 -4.015625 L 7.78125 -4.015625 L 7.78125 -0.921875 C 7.382812 -0.597656 6.925781 -0.347656 6.40625 -0.171875 C 5.882812 0.00390625 5.34375 0.09375 4.78125 0.09375 C 3.976562 0.09375 3.253906 -0.0820312 2.609375 -0.4375 C 1.960938 -0.789062 1.457031 -1.273438 1.09375 -1.890625 C 0.726562 -2.503906 0.546875 -3.195312 0.546875 -3.96875 C 0.546875 -4.738281 0.726562 -5.429688 1.09375 -6.046875 C 1.457031 -6.671875 1.960938 -7.15625 2.609375 -7.5 C 3.253906 -7.851562 3.984375 -8.03125 4.796875 -8.03125 C 5.429688 -8.03125 6.007812 -7.925781 6.53125 -7.71875 C 7.050781 -7.507812 7.488281 -7.207031 7.84375 -6.8125 L 7.140625 -6.109375 C 6.503906 -6.710938 5.738281 -7.015625 4.84375 -7.015625 C 4.238281 -7.015625 3.695312 -6.882812 3.21875 -6.625 C 2.738281 -6.363281 2.359375 -6 2.078125 -5.53125 C 1.804688 -5.070312 1.671875 -4.550781 1.671875 -3.96875 C 1.671875 -3.394531 1.804688 -2.875 2.078125 -2.40625 C 2.359375 -1.945312 2.738281 -1.582031 3.21875 -1.3125 C 3.695312 -1.050781 4.234375 -0.921875 4.828125 -0.921875 C 5.546875 -0.921875 6.164062 -1.085938 6.6875 -1.421875 Z M 6.6875 -4.015625 "/></g></g><g style="fill:#f2a9c3;fill-opacity:1;"><g transform="translate(205.315027, 287.145128)"><path style="stroke:none" d="M 4.234375 -2.75 L 4.234375 0 L 3.109375 0 L 3.109375 -2.765625 L -0.046875 -7.9375 L 1.171875 -7.9375 L 3.703125 -3.75 L 6.265625 -7.9375 L 7.390625 -7.9375 Z M 4.234375 -2.75 "/></g></g><g style="fill:#f2a9c3;fill-opacity:1;"><g transform="translate(213.619283, 287.145128)"><path style="stroke:none" d=""/></g></g><g style="fill:#f2a9c3;fill-opacity:1;"><g transform="translate(217.635587, 287.145128)"><path style="stroke:none" d="M 4.734375 0.09375 C 3.941406 0.09375 3.226562 -0.0820312 2.59375 -0.4375 C 1.957031 -0.789062 1.457031 -1.273438 1.09375 -1.890625 C 0.726562 -2.503906 0.546875 -3.195312 0.546875 -3.96875 C 0.546875 -4.738281 0.726562 -5.429688 1.09375 -6.046875 C 1.457031 -6.660156 1.957031 -7.144531 2.59375 -7.5 C 3.238281 -7.851562 3.957031 -8.03125 4.75 -8.03125 C 5.375 -8.03125 5.941406 -7.925781 6.453125 -7.71875 C 6.960938 -7.507812 7.398438 -7.203125 7.765625 -6.796875 L 7.03125 -6.078125 C 6.4375 -6.703125 5.691406 -7.015625 4.796875 -7.015625 C 4.203125 -7.015625 3.664062 -6.882812 3.1875 -6.625 C 2.71875 -6.363281 2.347656 -6 2.078125 -5.53125 C 1.804688 -5.0625 1.671875 -4.539062 1.671875 -3.96875 C 1.671875 -3.394531 1.804688 -2.875 2.078125 -2.40625 C 2.347656 -1.945312 2.71875 -1.582031 3.1875 -1.3125 C 3.664062 -1.050781 4.203125 -0.921875 4.796875 -0.921875 C 5.679688 -0.921875 6.425781 -1.238281 7.03125 -1.875 L 7.765625 -1.15625 C 7.398438 -0.75 6.957031 -0.4375 6.4375 -0.21875 C 5.925781 -0.0078125 5.359375 0.09375 4.734375 0.09375 Z M 4.734375 0.09375 "/></g></g><g style="fill:#f2a9c3;fill-opacity:1;"><g transform="translate(226.80196, 287.145128)"><path style="stroke:none" d="M 6.25 -1.984375 L 2.03125 -1.984375 L 1.15625 0 L -0.015625 0 L 3.578125 -7.9375 L 4.703125 -7.9375 L 8.3125 0 L 7.125 0 Z M 5.859375 -2.890625 L 4.140625 -6.78125 L 2.421875 -2.890625 Z M 5.859375 -2.890625 "/></g></g><g style="fill:#f2a9c3;fill-opacity:1;"><g transform="translate(236.070438, 287.145128)"><path style="stroke:none" d="M 6.5 0 L 4.78125 -2.4375 C 4.570312 -2.425781 4.40625 -2.421875 4.28125 -2.421875 L 2.328125 -2.421875 L 2.328125 0 L 1.1875 0 L 1.1875 -7.9375 L 4.28125 -7.9375 C 5.3125 -7.9375 6.117188 -7.691406 6.703125 -7.203125 C 7.296875 -6.710938 7.59375 -6.035156 7.59375 -5.171875 C 7.59375 -4.554688 7.441406 -4.03125 7.140625 -3.59375 C 6.835938 -3.164062 6.410156 -2.859375 5.859375 -2.671875 L 7.734375 0 Z M 4.25 -3.375 C 4.96875 -3.375 5.515625 -3.53125 5.890625 -3.84375 C 6.273438 -4.15625 6.46875 -4.597656 6.46875 -5.171875 C 6.46875 -5.742188 6.273438 -6.179688 5.890625 -6.484375 C 5.515625 -6.796875 4.96875 -6.953125 4.25 -6.953125 L 2.328125 -6.953125 L 2.328125 -3.375 Z M 4.25 -3.375 "/></g></g><g style="fill:#f2a9c3;fill-opacity:1;"><g transform="translate(245.282188, 287.145128)"><path style="stroke:none" d="M 6.953125 -0.984375 L 6.953125 0 L 1.1875 0 L 1.1875 -7.9375 L 6.796875 -7.9375 L 6.796875 -6.953125 L 2.328125 -6.953125 L 2.328125 -4.515625 L 6.3125 -4.515625 L 6.3125 -3.546875 L 2.328125 -3.546875 L 2.328125 -0.984375 Z M 6.953125 -0.984375 "/></g></g><g style="fill:#699992;fill-opacity:0.4;"><g transform="translate(156.181459, 302.895127)"><path style="stroke:none" d="M 3.5 0.09375 C 2.90625 0.09375 2.328125 0 1.765625 -0.1875 C 1.210938 -0.375 0.78125 -0.613281 0.46875 -0.90625 L 0.890625 -1.796875 C 1.191406 -1.523438 1.578125 -1.300781 2.046875 -1.125 C 2.515625 -0.957031 3 -0.875 3.5 -0.875 C 4.15625 -0.875 4.644531 -0.984375 4.96875 -1.203125 C 5.300781 -1.429688 5.46875 -1.726562 5.46875 -2.09375 C 5.46875 -2.363281 5.378906 -2.582031 5.203125 -2.75 C 5.023438 -2.925781 4.804688 -3.0625 4.546875 -3.15625 C 4.285156 -3.25 3.914062 -3.347656 3.4375 -3.453125 C 2.84375 -3.597656 2.359375 -3.742188 1.984375 -3.890625 C 1.617188 -4.035156 1.304688 -4.253906 1.046875 -4.546875 C 0.785156 -4.847656 0.65625 -5.253906 0.65625 -5.765625 C 0.65625 -6.179688 0.765625 -6.5625 0.984375 -6.90625 C 1.210938 -7.25 1.550781 -7.519531 2 -7.71875 C 2.457031 -7.925781 3.023438 -8.03125 3.703125 -8.03125 C 4.171875 -8.03125 4.628906 -7.96875 5.078125 -7.84375 C 5.535156 -7.726562 5.925781 -7.554688 6.25 -7.328125 L 5.875 -6.421875 C 5.539062 -6.628906 5.1875 -6.785156 4.8125 -6.890625 C 4.4375 -7.003906 4.066406 -7.0625 3.703125 -7.0625 C 3.054688 -7.0625 2.570312 -6.941406 2.25 -6.703125 C 1.925781 -6.472656 1.765625 -6.175781 1.765625 -5.8125 C 1.765625 -5.539062 1.851562 -5.316406 2.03125 -5.140625 C 2.21875 -4.972656 2.445312 -4.84375 2.71875 -4.75 C 2.988281 -4.65625 3.351562 -4.554688 3.8125 -4.453125 C 4.40625 -4.304688 4.882812 -4.160156 5.25 -4.015625 C 5.613281 -3.867188 5.925781 -3.648438 6.1875 -3.359375 C 6.445312 -3.066406 6.578125 -2.671875 6.578125 -2.171875 C 6.578125 -1.753906 6.460938 -1.375 6.234375 -1.03125 C 6.015625 -0.6875 5.671875 -0.410156 5.203125 -0.203125 C 4.742188 -0.00390625 4.175781 0.09375 3.5 0.09375 Z M 3.5 0.09375 "/></g></g><g style="fill:#699992;fill-opacity:0.4;"><g transform="translate(164.190778, 302.895127)"><path style="stroke:none" d="M 4.484375 0.09375 C 3.421875 0.09375 2.59375 -0.207031 2 -0.8125 C 1.414062 -1.414062 1.125 -2.285156 1.125 -3.421875 L 1.125 -7.9375 L 2.25 -7.9375 L 2.25 -3.46875 C 2.25 -1.769531 2.992188 -0.921875 4.484375 -0.921875 C 5.210938 -0.921875 5.769531 -1.128906 6.15625 -1.546875 C 6.539062 -1.960938 6.734375 -2.601562 6.734375 -3.46875 L 6.734375 -7.9375 L 7.84375 -7.9375 L 7.84375 -3.421875 C 7.84375 -2.285156 7.546875 -1.414062 6.953125 -0.8125 C 6.359375 -0.207031 5.535156 0.09375 4.484375 0.09375 Z M 4.484375 0.09375 "/></g></g><g style="fill:#699992;fill-opacity:0.4;"><g transform="translate(174.128529, 302.895127)"><path style="stroke:none" d="M 4.28125 -7.9375 C 5.3125 -7.9375 6.117188 -7.691406 6.703125 -7.203125 C 7.296875 -6.710938 7.59375 -6.035156 7.59375 -5.171875 C 7.59375 -4.304688 7.296875 -3.628906 6.703125 -3.140625 C 6.117188 -2.648438 5.3125 -2.40625 4.28125 -2.40625 L 2.328125 -2.40625 L 2.328125 0 L 1.1875 0 L 1.1875 -7.9375 Z M 4.25 -3.390625 C 4.96875 -3.390625 5.515625 -3.539062 5.890625 -3.84375 C 6.273438 -4.15625 6.46875 -4.597656 6.46875 -5.171875 C 6.46875 -5.742188 6.273438 -6.179688 5.890625 -6.484375 C 5.515625 -6.796875 4.96875 -6.953125 4.25 -6.953125 L 2.328125 -6.953125 L 2.328125 -3.390625 Z M 4.25 -3.390625 "/></g></g><g style="fill:#699992;fill-opacity:0.4;"><g transform="translate(183.283561, 302.895127)"><path style="stroke:none" d="M 4.28125 -7.9375 C 5.3125 -7.9375 6.117188 -7.691406 6.703125 -7.203125 C 7.296875 -6.710938 7.59375 -6.035156 7.59375 -5.171875 C 7.59375 -4.304688 7.296875 -3.628906 6.703125 -3.140625 C 6.117188 -2.648438 5.3125 -2.40625 4.28125 -2.40625 L 2.328125 -2.40625 L 2.328125 0 L 1.1875 0 L 1.1875 -7.9375 Z M 4.25 -3.390625 C 4.96875 -3.390625 5.515625 -3.539062 5.890625 -3.84375 C 6.273438 -4.15625 6.46875 -4.597656 6.46875 -5.171875 C 6.46875 -5.742188 6.273438 -6.179688 5.890625 -6.484375 C 5.515625 -6.796875 4.96875 -6.953125 4.25 -6.953125 L 2.328125 -6.953125 L 2.328125 -3.390625 Z M 4.25 -3.390625 "/></g></g><g style="fill:#699992;fill-opacity:0.4;"><g transform="translate(192.438594, 302.895127)"><path style="stroke:none" d="M 4.78125 0.09375 C 3.976562 0.09375 3.253906 -0.0820312 2.609375 -0.4375 C 1.960938 -0.789062 1.457031 -1.273438 1.09375 -1.890625 C 0.726562 -2.515625 0.546875 -3.207031 0.546875 -3.96875 C 0.546875 -4.726562 0.726562 -5.414062 1.09375 -6.03125 C 1.457031 -6.65625 1.960938 -7.144531 2.609375 -7.5 C 3.253906 -7.851562 3.976562 -8.03125 4.78125 -8.03125 C 5.570312 -8.03125 6.285156 -7.851562 6.921875 -7.5 C 7.566406 -7.144531 8.070312 -6.660156 8.4375 -6.046875 C 8.800781 -5.429688 8.984375 -4.738281 8.984375 -3.96875 C 8.984375 -3.195312 8.800781 -2.503906 8.4375 -1.890625 C 8.070312 -1.273438 7.566406 -0.789062 6.921875 -0.4375 C 6.285156 -0.0820312 5.570312 0.09375 4.78125 0.09375 Z M 4.78125 -0.921875 C 5.363281 -0.921875 5.882812 -1.050781 6.34375 -1.3125 C 6.8125 -1.582031 7.175781 -1.945312 7.4375 -2.40625 C 7.707031 -2.875 7.84375 -3.394531 7.84375 -3.96875 C 7.84375 -4.539062 7.707031 -5.0625 7.4375 -5.53125 C 7.175781 -6 6.8125 -6.363281 6.34375 -6.625 C 5.882812 -6.882812 5.363281 -7.015625 4.78125 -7.015625 C 4.195312 -7.015625 3.664062 -6.882812 3.1875 -6.625 C 2.71875 -6.363281 2.347656 -6 2.078125 -5.53125 C 1.804688 -5.0625 1.671875 -4.539062 1.671875 -3.96875 C 1.671875 -3.394531 1.804688 -2.875 2.078125 -2.40625 C 2.347656 -1.945312 2.71875 -1.582031 3.1875 -1.3125 C 3.664062 -1.050781 4.195312 -0.921875 4.78125 -0.921875 Z M 4.78125 -0.921875 "/></g></g><g style="fill:#699992;fill-opacity:0.4;"><g transform="translate(202.932196, 302.895127)"><path style="stroke:none" d="M 6.5 0 L 4.78125 -2.4375 C 4.570312 -2.425781 4.40625 -2.421875 4.28125 -2.421875 L 2.328125 -2.421875 L 2.328125 0 L 1.1875 0 L 1.1875 -7.9375 L 4.28125 -7.9375 C 5.3125 -7.9375 6.117188 -7.691406 6.703125 -7.203125 C 7.296875 -6.710938 7.59375 -6.035156 7.59375 -5.171875 C 7.59375 -4.554688 7.441406 -4.03125 7.140625 -3.59375 C 6.835938 -3.164062 6.410156 -2.859375 5.859375 -2.671875 L 7.734375 0 Z M 4.25 -3.375 C 4.96875 -3.375 5.515625 -3.53125 5.890625 -3.84375 C 6.273438 -4.15625 6.46875 -4.597656 6.46875 -5.171875 C 6.46875 -5.742188 6.273438 -6.179688 5.890625 -6.484375 C 5.515625 -6.796875 4.96875 -6.953125 4.25 -6.953125 L 2.328125 -6.953125 L 2.328125 -3.375 Z M 4.25 -3.375 "/></g></g><g style="fill:#699992;fill-opacity:0.4;"><g transform="translate(212.143945, 302.895127)"><path style="stroke:none" d="M 2.765625 -6.953125 L 0.046875 -6.953125 L 0.046875 -7.9375 L 6.609375 -7.9375 L 6.609375 -6.953125 L 3.890625 -6.953125 L 3.890625 0 L 2.765625 0 Z M 2.765625 -6.953125 "/></g></g><g style="fill:#f2a9c3;fill-opacity:1;"><g transform="translate(156.181459, 302.895127)"><path style="stroke:none" d="M 3.5 0.09375 C 2.90625 0.09375 2.328125 0 1.765625 -0.1875 C 1.210938 -0.375 0.78125 -0.613281 0.46875 -0.90625 L 0.890625 -1.796875 C 1.191406 -1.523438 1.578125 -1.300781 2.046875 -1.125 C 2.515625 -0.957031 3 -0.875 3.5 -0.875 C 4.15625 -0.875 4.644531 -0.984375 4.96875 -1.203125 C 5.300781 -1.429688 5.46875 -1.726562 5.46875 -2.09375 C 5.46875 -2.363281 5.378906 -2.582031 5.203125 -2.75 C 5.023438 -2.925781 4.804688 -3.0625 4.546875 -3.15625 C 4.285156 -3.25 3.914062 -3.347656 3.4375 -3.453125 C 2.84375 -3.597656 2.359375 -3.742188 1.984375 -3.890625 C 1.617188 -4.035156 1.304688 -4.253906 1.046875 -4.546875 C 0.785156 -4.847656 0.65625 -5.253906 0.65625 -5.765625 C 0.65625 -6.179688 0.765625 -6.5625 0.984375 -6.90625 C 1.210938 -7.25 1.550781 -7.519531 2 -7.71875 C 2.457031 -7.925781 3.023438 -8.03125 3.703125 -8.03125 C 4.171875 -8.03125 4.628906 -7.96875 5.078125 -7.84375 C 5.535156 -7.726562 5.925781 -7.554688 6.25 -7.328125 L 5.875 -6.421875 C 5.539062 -6.628906 5.1875 -6.785156 4.8125 -6.890625 C 4.4375 -7.003906 4.066406 -7.0625 3.703125 -7.0625 C 3.054688 -7.0625 2.570312 -6.941406 2.25 -6.703125 C 1.925781 -6.472656 1.765625 -6.175781 1.765625 -5.8125 C 1.765625 -5.539062 1.851562 -5.316406 2.03125 -5.140625 C 2.21875 -4.972656 2.445312 -4.84375 2.71875 -4.75 C 2.988281 -4.65625 3.351562 -4.554688 3.8125 -4.453125 C 4.40625 -4.304688 4.882812 -4.160156 5.25 -4.015625 C 5.613281 -3.867188 5.925781 -3.648438 6.1875 -3.359375 C 6.445312 -3.066406 6.578125 -2.671875 6.578125 -2.171875 C 6.578125 -1.753906 6.460938 -1.375 6.234375 -1.03125 C 6.015625 -0.6875 5.671875 -0.410156 5.203125 -0.203125 C 4.742188 -0.00390625 4.175781 0.09375 3.5 0.09375 Z M 3.5 0.09375 "/></g></g><g style="fill:#f2a9c3;fill-opacity:1;"><g transform="translate(164.190778, 302.895127)"><path style="stroke:none" d="M 4.484375 0.09375 C 3.421875 0.09375 2.59375 -0.207031 2 -0.8125 C 1.414062 -1.414062 1.125 -2.285156 1.125 -3.421875 L 1.125 -7.9375 L 2.25 -7.9375 L 2.25 -3.46875 C 2.25 -1.769531 2.992188 -0.921875 4.484375 -0.921875 C 5.210938 -0.921875 5.769531 -1.128906 6.15625 -1.546875 C 6.539062 -1.960938 6.734375 -2.601562 6.734375 -3.46875 L 6.734375 -7.9375 L 7.84375 -7.9375 L 7.84375 -3.421875 C 7.84375 -2.285156 7.546875 -1.414062 6.953125 -0.8125 C 6.359375 -0.207031 5.535156 0.09375 4.484375 0.09375 Z M 4.484375 0.09375 "/></g></g><g style="fill:#f2a9c3;fill-opacity:1;"><g transform="translate(174.128529, 302.895127)"><path style="stroke:none" d="M 4.28125 -7.9375 C 5.3125 -7.9375 6.117188 -7.691406 6.703125 -7.203125 C 7.296875 -6.710938 7.59375 -6.035156 7.59375 -5.171875 C 7.59375 -4.304688 7.296875 -3.628906 6.703125 -3.140625 C 6.117188 -2.648438 5.3125 -2.40625 4.28125 -2.40625 L 2.328125 -2.40625 L 2.328125 0 L 1.1875 0 L 1.1875 -7.9375 Z M 4.25 -3.390625 C 4.96875 -3.390625 5.515625 -3.539062 5.890625 -3.84375 C 6.273438 -4.15625 6.46875 -4.597656 6.46875 -5.171875 C 6.46875 -5.742188 6.273438 -6.179688 5.890625 -6.484375 C 5.515625 -6.796875 4.96875 -6.953125 4.25 -6.953125 L 2.328125 -6.953125 L 2.328125 -3.390625 Z M 4.25 -3.390625 "/></g></g><g style="fill:#f2a9c3;fill-opacity:1;"><g transform="translate(183.283561, 302.895127)"><path style="stroke:none" d="M 4.28125 -7.9375 C 5.3125 -7.9375 6.117188 -7.691406 6.703125 -7.203125 C 7.296875 -6.710938 7.59375 -6.035156 7.59375 -5.171875 C 7.59375 -4.304688 7.296875 -3.628906 6.703125 -3.140625 C 6.117188 -2.648438 5.3125 -2.40625 4.28125 -2.40625 L 2.328125 -2.40625 L 2.328125 0 L 1.1875 0 L 1.1875 -7.9375 Z M 4.25 -3.390625 C 4.96875 -3.390625 5.515625 -3.539062 5.890625 -3.84375 C 6.273438 -4.15625 6.46875 -4.597656 6.46875 -5.171875 C 6.46875 -5.742188 6.273438 -6.179688 5.890625 -6.484375 C 5.515625 -6.796875 4.96875 -6.953125 4.25 -6.953125 L 2.328125 -6.953125 L 2.328125 -3.390625 Z M 4.25 -3.390625 "/></g></g><g style="fill:#f2a9c3;fill-opacity:1;"><g transform="translate(192.438594, 302.895127)"><path style="stroke:none" d="M 4.78125 0.09375 C 3.976562 0.09375 3.253906 -0.0820312 2.609375 -0.4375 C 1.960938 -0.789062 1.457031 -1.273438 1.09375 -1.890625 C 0.726562 -2.515625 0.546875 -3.207031 0.546875 -3.96875 C 0.546875 -4.726562 0.726562 -5.414062 1.09375 -6.03125 C 1.457031 -6.65625 1.960938 -7.144531 2.609375 -7.5 C 3.253906 -7.851562 3.976562 -8.03125 4.78125 -8.03125 C 5.570312 -8.03125 6.285156 -7.851562 6.921875 -7.5 C 7.566406 -7.144531 8.070312 -6.660156 8.4375 -6.046875 C 8.800781 -5.429688 8.984375 -4.738281 8.984375 -3.96875 C 8.984375 -3.195312 8.800781 -2.503906 8.4375 -1.890625 C 8.070312 -1.273438 7.566406 -0.789062 6.921875 -0.4375 C 6.285156 -0.0820312 5.570312 0.09375 4.78125 0.09375 Z M 4.78125 -0.921875 C 5.363281 -0.921875 5.882812 -1.050781 6.34375 -1.3125 C 6.8125 -1.582031 7.175781 -1.945312 7.4375 -2.40625 C 7.707031 -2.875 7.84375 -3.394531 7.84375 -3.96875 C 7.84375 -4.539062 7.707031 -5.0625 7.4375 -5.53125 C 7.175781 -6 6.8125 -6.363281 6.34375 -6.625 C 5.882812 -6.882812 5.363281 -7.015625 4.78125 -7.015625 C 4.195312 -7.015625 3.664062 -6.882812 3.1875 -6.625 C 2.71875 -6.363281 2.347656 -6 2.078125 -5.53125 C 1.804688 -5.0625 1.671875 -4.539062 1.671875 -3.96875 C 1.671875 -3.394531 1.804688 -2.875 2.078125 -2.40625 C 2.347656 -1.945312 2.71875 -1.582031 3.1875 -1.3125 C 3.664062 -1.050781 4.195312 -0.921875 4.78125 -0.921875 Z M 4.78125 -0.921875 "/></g></g><g style="fill:#f2a9c3;fill-opacity:1;"><g transform="translate(202.932196, 302.895127)"><path style="stroke:none" d="M 6.5 0 L 4.78125 -2.4375 C 4.570312 -2.425781 4.40625 -2.421875 4.28125 -2.421875 L 2.328125 -2.421875 L 2.328125 0 L 1.1875 0 L 1.1875 -7.9375 L 4.28125 -7.9375 C 5.3125 -7.9375 6.117188 -7.691406 6.703125 -7.203125 C 7.296875 -6.710938 7.59375 -6.035156 7.59375 -5.171875 C 7.59375 -4.554688 7.441406 -4.03125 7.140625 -3.59375 C 6.835938 -3.164062 6.410156 -2.859375 5.859375 -2.671875 L 7.734375 0 Z M 4.25 -3.375 C 4.96875 -3.375 5.515625 -3.53125 5.890625 -3.84375 C 6.273438 -4.15625 6.46875 -4.597656 6.46875 -5.171875 C 6.46875 -5.742188 6.273438 -6.179688 5.890625 -6.484375 C 5.515625 -6.796875 4.96875 -6.953125 4.25 -6.953125 L 2.328125 -6.953125 L 2.328125 -3.375 Z M 4.25 -3.375 "/></g></g><g style="fill:#f2a9c3;fill-opacity:1;"><g transform="translate(212.143945, 302.895127)"><path style="stroke:none" d="M 2.765625 -6.953125 L 0.046875 -6.953125 L 0.046875 -7.9375 L 6.609375 -7.9375 L 6.609375 -6.953125 L 3.890625 -6.953125 L 3.890625 0 L 2.765625 0 Z M 2.765625 -6.953125 "/></g></g><g style="fill:#f2a9c3;fill-opacity:1;"><g transform="translate(99.132918, 267.522698)"><path style="stroke:none" d="M 22.3125 0 L 22.28125 -13.015625 L 15.90625 -2.296875 L 13.640625 -2.296875 L 7.28125 -12.734375 L 7.28125 0 L 2.578125 0 L 2.578125 -21.703125 L 6.734375 -21.703125 L 14.84375 -8.21875 L 22.84375 -21.703125 L 26.96875 -21.703125 L 27.03125 0 Z M 22.3125 0 "/></g></g><g style="fill:#f2a9c3;fill-opacity:1;"><g transform="translate(128.734238, 267.522698)"><path style="stroke:none" d="M 2.578125 -21.703125 L 7.59375 -21.703125 L 7.59375 0 L 2.578125 0 Z M 2.578125 -21.703125 "/></g></g><g style="fill:#f2a9c3;fill-opacity:1;"><g transform="translate(138.900974, 267.522698)"><path style="stroke:none" d="M 16.40625 0 L 12.21875 -6.046875 L 7.59375 -6.046875 L 7.59375 0 L 2.578125 0 L 2.578125 -21.703125 L 11.96875 -21.703125 C 13.882812 -21.703125 15.550781 -21.378906 16.96875 -20.734375 C 18.382812 -20.097656 19.472656 -19.191406 20.234375 -18.015625 C 21.003906 -16.835938 21.390625 -15.441406 21.390625 -13.828125 C 21.390625 -12.210938 21 -10.820312 20.21875 -9.65625 C 19.445312 -8.488281 18.347656 -7.59375 16.921875 -6.96875 L 21.796875 0 Z M 16.3125 -13.828125 C 16.3125 -15.046875 15.914062 -15.976562 15.125 -16.625 C 14.34375 -17.28125 13.195312 -17.609375 11.6875 -17.609375 L 7.59375 -17.609375 L 7.59375 -10.046875 L 11.6875 -10.046875 C 13.195312 -10.046875 14.34375 -10.375 15.125 -11.03125 C 15.914062 -11.695312 16.3125 -12.628906 16.3125 -13.828125 Z M 16.3125 -13.828125 "/></g></g><g style="fill:#f2a9c3;fill-opacity:1;"><g transform="translate(161.683139, 267.522698)"><path style="stroke:none" d="M 16.859375 -4.65625 L 6.78125 -4.65625 L 4.859375 0 L -0.28125 0 L 9.390625 -21.703125 L 14.359375 -21.703125 L 24.0625 0 L 18.78125 0 Z M 15.28125 -8.46875 L 11.84375 -16.765625 L 8.40625 -8.46875 Z M 15.28125 -8.46875 "/></g></g><g style="fill:#f2a9c3;fill-opacity:1;"><g transform="translate(185.426183, 267.522698)"><path style="stroke:none" d="M 22.3125 0 L 22.28125 -13.015625 L 15.90625 -2.296875 L 13.640625 -2.296875 L 7.28125 -12.734375 L 7.28125 0 L 2.578125 0 L 2.578125 -21.703125 L 6.734375 -21.703125 L 14.84375 -8.21875 L 22.84375 -21.703125 L 26.96875 -21.703125 L 27.03125 0 Z M 22.3125 0 "/></g></g><g style="fill:#f2a9c3;fill-opacity:1;"><g transform="translate(215.027503, 267.522698)"><path style="stroke:none" d="M 2.578125 -21.703125 L 7.59375 -21.703125 L 7.59375 0 L 2.578125 0 Z M 2.578125 -21.703125 "/></g></g><g style="fill:#f2a9c3;fill-opacity:1;"><g transform="translate(225.194239, 267.522698)"><path style="stroke:none" d="M 22.46875 -21.703125 L 22.46875 0 L 18.359375 0 L 7.53125 -13.171875 L 7.53125 0 L 2.578125 0 L 2.578125 -21.703125 L 6.734375 -21.703125 L 17.515625 -8.53125 L 17.515625 -21.703125 Z M 22.46875 -21.703125 "/></g></g><g style="fill:#f2a9c3;fill-opacity:1;"><g transform="translate(250.239117, 267.522698)"><path style="stroke:none" d="M 2.578125 -21.703125 L 12.4375 -21.703125 C 14.789062 -21.703125 16.867188 -21.25 18.671875 -20.34375 C 20.484375 -19.445312 21.890625 -18.179688 22.890625 -16.546875 C 23.890625 -14.921875 24.390625 -13.019531 24.390625 -10.84375 C 24.390625 -8.675781 23.890625 -6.773438 22.890625 -5.140625 C 21.890625 -3.515625 20.484375 -2.25 18.671875 -1.34375 C 16.867188 -0.445312 14.789062 0 12.4375 0 L 2.578125 0 Z M 12.1875 -4.125 C 14.351562 -4.125 16.082031 -4.726562 17.375 -5.9375 C 18.664062 -7.144531 19.3125 -8.78125 19.3125 -10.84375 C 19.3125 -12.914062 18.664062 -14.554688 17.375 -15.765625 C 16.082031 -16.972656 14.351562 -17.578125 12.1875 -17.578125 L 7.59375 -17.578125 L 7.59375 -4.125 Z M 12.1875 -4.125 "/></g></g></g></svg>
